<?xml version="1.0" encoding="UTF-8" standalone="no"?>
<!-- Created with Inkscape (http://www.inkscape.org/) -->

<svg
   xmlns:dc="http://purl.org/dc/elements/1.1/"
   xmlns:cc="http://creativecommons.org/ns#"
   xmlns:rdf="http://www.w3.org/1999/02/22-rdf-syntax-ns#"
   xmlns:svg="http://www.w3.org/2000/svg"
   xmlns="http://www.w3.org/2000/svg"
   xmlns:xlink="http://www.w3.org/1999/xlink"
   version="1.1"
   width="923.24695"
   height="585.87372"
   id="svg7743">
  <defs
     id="defs7745">
    <linearGradient
       id="linearGradient7888">
      <stop
         id="stop7890"
         style="stop-color:#000000;stop-opacity:1"
         offset="0" />
      <stop
         id="stop7892"
         style="stop-color:#000000;stop-opacity:0"
         offset="1" />
    </linearGradient>
    <filter
       color-interpolation-filters="sRGB"
       id="filter7664">
      <feGaussianBlur
         id="feGaussianBlur7666"
         stdDeviation="17.768692" />
    </filter>
    <radialGradient
       cx="-3007.6218"
       cy="5788.2842"
       r="2169.1843"
       fx="-3007.6218"
       fy="5788.2842"
       id="radialGradient7646"
       xlink:href="#linearGradient7351"
       gradientUnits="userSpaceOnUse"
       gradientTransform="matrix(-1.3873582,0.05493981,-0.03272725,-0.82643925,-7052.3411,10619.298)" />
    <linearGradient
       id="linearGradient7351">
      <stop
         id="stop7353"
         style="stop-color:#00ffff;stop-opacity:1"
         offset="0" />
      <stop
         id="stop7355"
         style="stop-color:#00ffff;stop-opacity:0"
         offset="1" />
    </linearGradient>
    <filter
       color-interpolation-filters="sRGB"
       id="filter7266">
      <feGaussianBlur
         id="feGaussianBlur7268"
         stdDeviation="18.142764" />
    </filter>
    <filter
       color-interpolation-filters="sRGB"
       id="filter7314">
      <feGaussianBlur
         id="feGaussianBlur7316"
         stdDeviation="11.1754" />
    </filter>
    <filter
       color-interpolation-filters="sRGB"
       id="filter7293">
      <feGaussianBlur
         id="feGaussianBlur7295"
         stdDeviation="7.7569956" />
    </filter>
    <filter
       color-interpolation-filters="sRGB"
       id="filter7343">
      <feGaussianBlur
         id="feGaussianBlur7345"
         stdDeviation="14.023709" />
    </filter>
    <linearGradient
       x1="-3198.2024"
       y1="4221.8809"
       x2="-3234.0566"
       y2="6050.4497"
       id="linearGradient7648"
       xlink:href="#linearGradient7382"
       gradientUnits="userSpaceOnUse" />
    <linearGradient
       id="linearGradient7382">
      <stop
         id="stop7384"
         style="stop-color:#f9f9f9;stop-opacity:1"
         offset="0" />
      <stop
         id="stop7386"
         style="stop-color:#f9f9f9;stop-opacity:0"
         offset="1" />
    </linearGradient>
    <radialGradient
       cx="-3007.6218"
       cy="5788.2842"
       r="2169.1843"
       fx="-3007.6218"
       fy="5788.2842"
       id="radialGradient7860"
       xlink:href="#linearGradient7351"
       gradientUnits="userSpaceOnUse"
       gradientTransform="matrix(-1.3873582,0.05493981,-0.03272725,-0.82643925,-7052.3411,10619.298)" />
    <linearGradient
       x1="-3198.2024"
       y1="4221.8809"
       x2="-3234.0566"
       y2="6050.4497"
       id="linearGradient7862"
       xlink:href="#linearGradient7382"
       gradientUnits="userSpaceOnUse" />
    <linearGradient
       x1="-3198.2024"
       y1="4221.8809"
       x2="-3234.0566"
       y2="6050.4497"
       id="linearGradient7865"
       xlink:href="#linearGradient7382"
       gradientUnits="userSpaceOnUse"
       gradientTransform="matrix(0.20735215,0,0,0.20735215,884.74229,-946.45239)" />
    <linearGradient
       x1="619.08405"
       y1="-116.87032"
       x2="608.62653"
       y2="606.7887"
       id="linearGradient7894"
       xlink:href="#linearGradient7888"
       gradientUnits="userSpaceOnUse"
       gradientTransform="matrix(0.97285068,0,0,0.9574468,19.993392,13.313879)" />
  </defs>
  <metadata
     id="metadata7748">
    <rdf:RDF>
      <cc:Work
         rdf:about="">
        <dc:format>image/svg+xml</dc:format>
        <dc:type
           rdf:resource="http://purl.org/dc/dcmitype/StillImage" />
        <dc:title></dc:title>
      </cc:Work>
    </rdf:RDF>
  </metadata>
  <g
     transform="translate(-5.352891,-2.9345842)"
     id="layer1">
    <rect
       width="899.34503"
       height="564.70502"
       ry="0"
       x="19.993391"
       y="11.554268"
       id="rect7886"
       style="fill:url(#linearGradient7894);fill-opacity:1;stroke:none" />
    <g
       transform="matrix(0.27503722,0,0,0.27503722,1219.4991,-1305.6499)"
       id="g7359">
      <path
         d="m -2572.4373,4853.4688 c -153.1118,1.41 -304.9994,53.7497 -426.4062,146.625 -128.3509,97.3662 -222.8254,238.887 -262.1911,395.4043 -41.698,163.4171 -24.0897,341.7345 50.3786,493.1894 72.8162,149.7028 198.7491,272.2989 350.4719,340.7597 153.3895,69.8136 331.7963,82.9725 493.8036,36.6269 21.0879,-5.8107 41.7184,-12.901 62.3495,-20.1991 -92.8498,-28.0191 -180.3868,-74.1327 -254.438,-136.7235 -117.9864,-98.747 -202.3078,-237.9108 -234.0863,-388.3788 -33.6398,-155.865 -12.4127,-323.4374 60.618,-465.2415 79.1125,-155.6148 218.0158,-279.3592 382.0322,-339.0414 15.0263,-5.6487 30.2832,-10.5476 45.4991,-15.7086 -85.5109,-31.9139 -176.6395,-48.7722 -268.0313,-47.3124 z"
         id="path7240"
         style="fill:#000000;fill-opacity:1;stroke:none;filter:url(#filter7266)" />
      <path
         d="m -2563.1727,4863.5486 c -392.023,0 -709.8341,317.8111 -709.8341,709.8341 0,392.0229 317.8111,709.7804 709.8341,709.7804 79.5281,0 155.9952,-13.0495 227.3804,-37.1734 -280.498,-94.7926 -482.4536,-360.1122 -482.4536,-672.607 0,-312.4948 201.9556,-577.8681 482.4536,-672.6605 -71.3852,-24.1241 -147.8523,-37.1736 -227.3804,-37.1736 z"
         id="path7075"
         style="fill:#ffffff;fill-opacity:1;stroke:none" />
      <g
         transform="translate(-2535.281,0)"
         id="g7270"
         style="fill:#000000">
        <path
           d="m 300,5179.8438 c -64.57657,0.4817 -130.61549,25.6935 -173.33662,75.1044 -10.52361,12.0625 -19.36412,25.6605 -26.03838,40.1768 -56.246586,-4.9197 -116.202998,18.1178 -149.125,64.875 -10.433179,14.8924 -17.840457,32.0777 -20.875,50.0938 -62.82366,-4.6126 -129.27017,10.2391 -178.28125,51.1562 -27.7827,23.5651 -47.94732,58.8491 -45.625,96.2188 1.92619,38.6751 26.46899,72.826 57.37124,94.5881 15.33901,11.2766 32.75313,19.5857 50.16001,26.6619 -10.19022,35.8315 1.52597,75.3957 26.34375,102.5 12.16331,13.9483 26.88767,25.6037 42.71875,35.0937 -9.96307,12.2962 -11.19912,31.3149 -0.8125,43.7187 15.7905,20.9112 41.50416,30.4003 65.15625,39.4688 32.870012,11.7452 67.372224,18.4197 101.375,25 37.018052,37.0151 87.83973,55.9389 137.95403,67.3951 78.00614,16.8273 160.43137,15.1804 237.41413,-5.8247 21.02136,-5.9374 41.58578,-13.5545 61.00684,-23.4766 97.6729,29.7954 204.38277,30.2735 302.53125,2 50.18845,-14.7351 98.62035,-38.0346 138.4375,-72.4688 41.21677,18.7325 92.3036,12.191 127.875,-15.75 47.9311,-36.3297 69.9133,-99.98 62.4688,-158.7812 -6.152,-52.5445 -36.7595,-103.9343 -85.2813,-127.2813 -15.424,-7.5615 -32.76697,-11.6697 -49.65625,-12.5937 0.13347,-60.2666 -33.23815,-117.8792 -82.53125,-151.5313 -53.12174,-37.0684 -123.35198,-47.8343 -185.5625,-30.0937 -17.8308,-59.4414 -64.656,-112.0881 -125.65625,-128.375 -31.2546,-8.448 -65.40303,-7.054 -95.71875,4.25 -35.89361,-53.156 -98.2741,-84.1641 -161.21875,-90.6563 -10.31513,-1.1322 -20.71201,-1.5686 -31.09375,-1.4687 z"
           id="path7272"
           style="fill:#000000;fill-opacity:1;stroke:none;filter:url(#filter7314)" />
      </g>
      <g
         transform="translate(-2535.281,0)"
         id="g7102"
         style="fill:#ffffff">
        <path
           d="m 530.64343,6011.0103 c 0,75.2467 -118.78858,136.2462 -265.32171,136.2462 C 118.78858,6147.2565 0,6086.257 0,6011.0103 0,5935.7635 118.78858,5874.764 265.32172,5874.764 c 146.53313,0 265.32171,60.9995 265.32171,136.2463 z m 426.66605,-102.1846 c 0,121.7809 -154.90673,220.5039 -345.99387,220.5039 -191.08713,0 -345.99386,-98.723 -345.99386,-220.5039 0,-121.7809 154.90673,-220.5039 345.99386,-220.5039 191.08714,0 345.99387,98.723 345.99387,220.5039 z m -294.00516,84.2573 c 0,51.4846 -180.59076,93.2212 -403.36075,93.2212 -222.769987,0 -403.36075,-41.7366 -403.36075,-93.2212 0,-51.4846 180.590763,-93.2211 403.36075,-93.2211 222.76999,0 403.36075,41.7365 403.36075,93.2211 z M 548.57059,5752.8594 c 0,87.1278 -114.77546,157.7588 -256.35816,157.7588 -141.5827,0 -256.358151,-70.631 -256.358151,-157.7588 0,-87.1278 114.775451,-157.7589 256.358151,-157.7589 141.5827,0 256.35816,70.6311 256.35816,157.7589 z m -347.78657,107.563 c 0,75.2467 -91.49932,136.2463 -204.3694487,136.2463 -112.8701313,0 -204.3694413,-60.9996 -204.3694413,-136.2463 0,-75.2468 91.49931,-136.2463 204.3694413,-136.2463 112.8701287,0 204.3694487,60.9995 204.3694487,136.2463 z M 71.708572,5706.2485 c 0,73.2666 -85.880933,132.6609 -191.820432,132.6609 -105.9395,0 -191.82044,-59.3943 -191.82044,-132.6609 0,-73.2665 85.88094,-132.6608 191.82044,-132.6608 105.939499,0 191.820432,59.3943 191.820432,132.6608 z M 204.36944,5584.3442 c 0,69.3063 -65.8153,125.4901 -147.002581,125.4901 -81.187282,0 -147.002578,-56.1838 -147.002578,-125.4901 0,-69.3062 65.815296,-125.49 147.002578,-125.49 81.187281,0 147.002581,56.1838 147.002581,125.49 z m 874.84456,310.1397 c 0,84.1575 -58.5916,152.3807 -130.86811,152.3807 -72.27649,0 -130.86815,-68.2232 -130.86815,-152.3807 0,-84.1576 58.59166,-152.3807 130.86815,-152.3807 72.27651,0 130.86811,68.2231 130.86811,152.3807 z M 942.96774,5733.1396 c 0,99.999 -88.28881,181.0642 -197.19857,181.0642 -108.90977,0 -197.19858,-81.0652 -197.19858,-181.0642 0,-99.9989 88.28881,-181.0641 197.19858,-181.0641 108.90976,0 197.19857,81.0652 197.19857,181.0641 z M 684.81693,5616.6128 c 0,104.9494 -74.64419,190.0277 -166.72245,190.0277 -92.07826,0 -166.72244,-85.0783 -166.72244,-190.0277 0,-104.9494 74.64418,-190.0277 166.72244,-190.0277 92.07826,0 166.72245,85.0783 166.72245,190.0277 z M 480.44746,5512.6357 c 0,93.0684 -92.30194,168.5152 -206.16215,168.5152 -113.86022,0 -206.162156,-75.4468 -206.162156,-168.5152 0,-93.0683 92.301936,-168.5151 206.162156,-168.5151 113.86021,0 206.16215,75.4468 206.16215,168.5151 z"
           transform="translate(28.68343,-154.17344)"
           id="path7100"
           style="fill:#ffffff;fill-opacity:1;stroke:none" />
      </g>
      <g
         transform="translate(-2535.281,0)"
         id="g7274"
         style="fill:#000000">
        <g
           transform="matrix(0.66071425,0,0,0.66071425,-1293.6354,1915.0486)"
           id="g7276"
           style="fill:#000000" />
        <path
           d="m -1094.9688,5334 c -47.7658,0.1338 -97.1569,20.7781 -125.1349,60.5075 -4.0243,4.6048 -6.0395,11.331 -9.8338,15.43 -41.8215,-2.6621 -86.5264,17.8753 -105.527,56.37 -3.0872,6.233 -5.3603,12.8769 -6.848,19.6613 -45.6374,-2.731 -94.4689,10.1055 -126.625,43.875 -18.9084,20.1535 -27.7875,50.7105 -18,77.1562 6.4723,18.9608 20.3882,34.6683 36.5625,46.0625 -27.3216,30.2703 -37.9259,75.7354 -23.1064,114.2561 12.3633,33.7904 40.1831,60.2528 72.3876,75.3689 -2.5413,26.7614 15.2407,51.0649 36.6876,65.1875 38.1421,26.1412 85.6007,34.5017 131.1562,34.3438 28.1023,-0.3037 56.2321,-4.586 82.75,-13.8438 92.907,19.4236 189.03107,21.8331 283.26003,11.4876 58.85693,-7.036 118.46614,-18.6695 171.58372,-45.5188 22.65157,-11.7644 45.83116,-28.1551 54.5625,-53.2188 2.32178,-7.3604 2.79844,-15.3878 1.59375,-22.9688 36.20987,-3.5191 66.73911,-31.1859 79.40264,-64.4909 18.92323,-47.0561 6.44017,-107.0304 -34.67139,-138.3591 -13.44058,-10.2782 -29.87765,-16.8885 -46.79375,-18.1187 -1.10001,-48.7109 -34.3576,-93.2656 -78.40625,-112.5313 -5.78246,-3.066 -13.50684,-4.7546 -18.53125,-7.4687 7.6442,-20.2946 -0.86879,-43.7075 -16.91635,-57.3409 -27.48404,-25.446 -65.38917,-35.1924 -101.6149,-40.3466 -38.46479,-4.9551 -78.11943,-2.7265 -115.65625,7.25 -29.5178,-35.5409 -76.6656,-53.2912 -122.2813,-52.75 z"
           id="path7278"
           style="fill:#000000;fill-opacity:1;stroke:none;filter:url(#filter7293)" />
      </g>
      <g
         transform="translate(-2535.281,-5.0705621)"
         id="g7147"
         style="fill:#ffffff">
        <g
           transform="matrix(0.66071425,0,0,0.66071425,-1293.6354,1915.0486)"
           id="g7115"
           style="fill:#ffffff" />
        <path
           d="m -745.76917,5460.647 c 0,40.5936 -67.42054,73.5013 -150.58801,73.5013 -83.16746,0 -150.58802,-32.9077 -150.58802,-73.5013 0,-40.5937 67.42056,-73.5013 150.58802,-73.5013 83.16747,0 150.58801,32.9076 150.58801,73.5013 z m 96.80655,365.7138 c 0,60.3955 -145.27522,109.3556 -324.48129,109.3556 -179.20609,0 -324.48129,-48.9601 -324.48129,-109.3556 0,-60.3954 145.2752,-109.3555 324.48129,-109.3555 179.20607,0 324.48129,48.9601 324.48129,109.3555 z m -433.83688,21.5122 c 0,46.5342 -69.0258,84.2576 -154.1734,84.2576 -85.1476,0 -154.1734,-37.7234 -154.1734,-84.2576 0,-46.5341 69.0258,-84.2575 154.1734,-84.2575 85.1476,0 154.1734,37.7234 154.1734,84.2575 z m -93.2211,-118.3188 c 0,66.3359 -65.8153,120.1119 -147.0026,120.1119 -81.1873,0 -147.0026,-53.776 -147.0026,-120.1119 0,-66.336 65.8153,-120.1119 147.0026,-120.1119 81.1873,0 147.0026,53.7759 147.0026,120.1119 z m 251.94043,55.19 c 0,49.7165 -78.48533,90.0198 -175.30183,90.0198 -96.8165,0 -175.3018,-40.3033 -175.3018,-90.0198 0,-49.7167 78.4853,-90.0199 175.3018,-90.0199 96.8165,0 175.30183,40.3032 175.30183,90.0199 z m 281.90434,-67.5148 c 0,80.4623 -102.34909,145.69 -228.60308,145.69 -126.25399,0 -228.60309,-65.2277 -228.60309,-145.69 0,-80.4624 102.3491,-145.6901 228.60309,-145.6901 126.25399,0 228.60308,65.2277 228.60308,145.6901 z m -194.2534,55.67 c 0,34.0166 -119.31889,61.5925 -266.50617,61.5925 -147.1873,0 -266.5062,-27.5759 -266.5062,-61.5925 0,-34.0167 119.3189,-61.5926 266.5062,-61.5926 147.18728,0 266.50617,27.5759 266.50617,61.5926 z m -75.80621,-158.7192 c 0,57.5666 -75.83379,104.2335 -169.37946,104.2335 -93.5457,0 -169.3795,-46.6669 -169.3795,-104.2335 0,-57.5666 75.8338,-104.2336 169.3795,-104.2336 93.54567,0 169.37946,46.667 169.37946,104.2336 z m -229.78756,71.0684 c 0,49.7166 -60.4549,90.0199 -135.0298,90.0199 -74.5749,0 -135.0298,-40.3033 -135.0298,-90.0199 0,-49.7166 60.4549,-90.0199 135.0298,-90.0199 74.5749,0 135.0298,40.3033 135.0298,90.0199 z m -85.282,-101.8649 c 0,48.4083 -56.7427,87.651 -126.7385,87.651 -69.9957,0 -126.7385,-39.2427 -126.7385,-87.651 0,-48.4082 56.7428,-87.6509 126.7385,-87.6509 69.9958,0 126.7385,39.2427 126.7385,87.6509 z m 87.651,-80.5439 c 0,45.7917 -43.4852,82.9131 -97.1267,82.9131 -53.6416,0 -97.1267,-37.1214 -97.1267,-82.9131 0,-45.7916 43.4851,-82.913 97.1267,-82.913 53.6415,0 97.1267,37.1214 97.1267,82.913 z m 578.02222,204.9137 c 0,55.6041 -38.71231,100.6801 -86.46643,100.6801 -47.7541,0 -86.46645,-45.076 -86.46645,-100.6801 0,-55.6041 38.71235,-100.6801 86.46645,-100.6801 47.75412,0 86.46643,45.076 86.46643,100.6801 z m -90.01985,-106.6025 c 0,66.0708 -58.33367,119.6317 -130.2919,119.6317 -71.95824,0 -130.29191,-53.5609 -130.29191,-119.6317 0,-66.0707 58.33367,-119.6316 130.29191,-119.6316 71.95823,0 130.2919,53.5609 130.2919,119.6316 z m -170.56391,-76.9909 c 0,69.3416 -49.31848,125.554 -110.1559,125.554 -60.83742,0 -110.15586,-56.2124 -110.15586,-125.554 0,-69.3415 49.31844,-125.554 110.15586,-125.554 60.83742,0 110.1559,56.2125 110.1559,125.554 z m -135.02983,-68.6991 c 0,61.4916 -60.98523,111.3404 -136.21423,111.3404 -75.2291,0 -136.2143,-49.8488 -136.2143,-111.3404 0,-61.4916 60.9852,-111.3404 136.2143,-111.3404 75.229,0 136.21423,49.8488 136.21423,111.3404 z"
           id="path7145"
           style="fill:#ffffff;fill-opacity:1;stroke:none" />
      </g>
      <g
         transform="translate(-2535.281,0)"
         id="g7280"
         style="fill:#000000">
        <path
           d="m 233.875,6173 c -65.22284,0.476 -132.27562,26.3294 -173.970002,77.7484 -6.304409,7.8357 -11.936807,16.2759 -16.717498,25.1578 -56.199792,-16.3142 -116.79122,-17.2716 -173.90616,-5.2203 -5.40278,1.817 -11.07677,2.673 -16.21983,-0.5355 -72.27714,-26.1652 -150.49157,-32.0381 -226.83497,-27.5571 -56.70433,3.8352 -113.80815,14.4185 -165.40222,38.6977 -7.06546,2.9877 -13.73351,8.2558 -20.77961,10.2571 -81.02758,-24.7977 -167.50401,-29.3766 -251.79047,-22.2374 -58.65162,5.5742 -118.02084,17.2559 -170.56635,44.7054 -9.03473,4.9593 -17.67179,10.4965 -25.71909,16.9839 -76.1021,-7.7473 -154.2737,-4.6532 -227.9063,16.875 -28.3206,8.5885 -57.2349,20.523 -77.6563,42.6562 -11.7023,13.2644 -16.6283,33.4698 -8.0312,49.625 4.4416,9.2624 11.5952,16.9733 19.5312,23.3438 -30.5908,7.845 -61.9882,17.2923 -86.9687,37.375 -11.8679,9.8066 -20.2503,26.9637 -13.375,42 8.8275,20.1769 30.1977,30.5378 49.2331,38.828 48.8725,20.1955 101.7111,28.1349 153.9544,34.422 90.0658,10.0059 181.2877,9.4832 271.375,0.75 3.8641,-0.3199 3.95339,5.1429 6.625,7.0625 22.38857,28.0564 56.9217,42.544 90.10983,53.4886 68.60564,21.3512 141.8304,25.0425 213.09691,18.1988 7.65908,-0.809 15.30827,-1.7202 22.91826,-2.9061 35.90881,32.5386 82.8937,49.192 128.83218,62.4142 94.80546,25.9535 193.95306,32.4224 291.97932,28.541 77.930901,-3.5241 156.130423,-14.5807 229.90725,-40.3302 35.316611,-12.7751 70.80198,-29.0909 97.1923,-56.4956 2.32542,-4.4521 7.35724,0.6312 10.98797,0.7078 82.4968,23.984 170.40079,27.2485 255.28848,15.2252 54.82675,-8.2606 109.89975,-23.4974 156.40625,-54.5 24.29064,-16.5297 46.57298,-40.4513 50.75,-70.5 0.10784,-3.7155 0.22663,-7.199 4.875,-7.1562 54.77875,-18.1542 106.46175,-52.4307 135.86453,-103.1845 25.17148,-42.7759 28.36203,-98.0169 6.86645,-142.8532 -24.38328,-52.774 -73.75034,-90.045 -126.96523,-110.8556 -77.62235,-30.4289 -166.71431,-30.3413 -244.6095,-0.9192 -6.46378,2.5171 -12.89176,5.1927 -19.15625,8.1563 C 341.06974,6188.1171 287.01593,6172.3667 233.875,6173 z"
           id="path7282"
           style="fill:#000000;fill-opacity:1;stroke:none;filter:url(#filter7343)" />
      </g>
      <g
         transform="translate(-2530.2104,-5.0705622)"
         id="g7187"
         style="fill:#ffffff">
        <path
           d="m -842.57581,6421.542 c 0,46.5342 -105.94657,84.2576 -236.63829,84.2576 -130.6917,0 -236.6383,-37.7234 -236.6383,-84.2576 0,-46.5342 105.9466,-84.2576 236.6383,-84.2576 130.69172,0 236.63829,37.7234 236.63829,84.2576 z m 114.73383,109.3555 c 0,45.544 -149.28836,82.4648 -333.44492,82.4648 -184.1565,0 -333.4449,-36.9208 -333.4449,-82.4648 0,-45.5441 149.2884,-82.4649 333.4449,-82.4649 184.15656,0 333.44492,36.9208 333.44492,82.4649 z m 294.00507,55.5742 c 0,56.435 -109.95971,102.1847 -245.60187,102.1847 -135.64217,0 -245.60187,-45.7497 -245.60187,-102.1847 0,-56.4351 109.9597,-102.1847 245.60187,-102.1847 135.64216,0 245.60187,45.7496 245.60187,102.1847 z m 598.76663,50.1958 c 0,76.2368 -174.1697465,138.039 -389.01901,138.039 -214.84927,0 -389.01902,-61.8022 -389.01902,-138.039 0,-76.2369 174.16975,-138.039 389.01902,-138.039 214.8492635,0 389.01901,61.8021 389.01901,138.039 z m 451.76404,-68.1231 c 0,72.2765 -130.02535,130.8682 -290.41974,130.8682 -160.3944,0 -290.419741,-58.5917 -290.419741,-130.8682 0,-72.2764 130.025341,-130.8681 290.419741,-130.8681 160.39439,0 290.41974,58.5917 290.41974,130.8681 z m 161.34428,-179.2715 c 0,103.9594 -113.97283,188.2351 -254.56544,188.2351 -140.59262,0 -254.56545,-84.2757 -254.56545,-188.2351 0,-103.9593 113.97283,-188.235 254.56545,-188.235 140.59261,0 254.56544,84.2757 254.56544,188.235 z m -340.61572,-44.8178 c 0,89.108 -89.89407,161.3443 -200.78401,161.3443 -110.88995,0 -200.784016,-72.2363 -200.784016,-161.3443 0,-89.108 89.894066,-161.3443 200.784016,-161.3443 110.88994,0 200.78401,72.2363 200.78401,161.3443 z m -319.10317,7.1709 c 0,43.5639 -77.052054,78.8794 -172.100583,78.8794 -95.048527,0 -172.100587,-35.3155 -172.100587,-78.8794 0,-43.5639 77.05206,-78.8795 172.100587,-78.8795 95.048529,0 172.100583,35.3156 172.100583,78.8795 z m -179.271421,10.7563 c 0,61.3855 -120.393839,111.1483 -268.907169,111.1483 -148.51332,0 -268.90716,-49.7628 -268.90716,-111.1483 0,-61.3855 120.39384,-111.1483 268.90716,-111.1483 148.51333,0 268.907169,49.7628 268.907169,111.1483 z m -397.982639,23.3052 c 0,60.3954 -127.61747,109.3556 -285.04159,109.3556 -157.42413,0 -285.0416,-48.9602 -285.0416,-109.3556 0,-60.3954 127.61747,-109.3556 285.0416,-109.3556 157.42412,0 285.04159,48.9602 285.04159,109.3556 z m 1118.65381,105.77 c 0,83.1675 -432.61519,150.588 -966.27307,150.588 -533.65788,0 -966.27303,-67.4205 -966.27303,-150.588 0,-83.1674 432.61515,-150.588 966.27303,-150.588 533.65788,0 966.27307,67.4206 966.27307,150.588 z"
           id="path7185"
           style="fill:#ffffff;fill-opacity:1;stroke:none" />
      </g>
    </g>
  </g>
</svg>
